<svg xmlns="http://www.w3.org/2000/svg" viewBox="0 0 48 48" fill="none">
  <rect width="48" height="48" rx="10" fill="#0a0e1a"/>
  <defs>
    <linearGradient id="g" x1="4" y1="4" x2="44" y2="44" gradientUnits="userSpaceOnUse">
      <stop offset="0%" stop-color="#22d3ee"/>
      <stop offset="55%" stop-color="#8b5cf6"/>
      <stop offset="100%" stop-color="#e879f9"/>
    </linearGradient>
  </defs>

  <line x1="3" y1="8" x2="3" y2="3" stroke="#22d3ee" stroke-width="1.4" stroke-linecap="round" opacity="0.55"/>
  <line x1="3" y1="3" x2="8" y2="3" stroke="#22d3ee" stroke-width="1.4" stroke-linecap="round" opacity="0.55"/>
  <line x1="45" y1="8" x2="45" y2="3" stroke="#22d3ee" stroke-width="1.4" stroke-linecap="round" opacity="0.55"/>
  <line x1="45" y1="3" x2="40" y2="3" stroke="#22d3ee" stroke-width="1.4" stroke-linecap="round" opacity="0.55"/>
  <line x1="3" y1="40" x2="3" y2="45" stroke="#22d3ee" stroke-width="1.4" stroke-linecap="round" opacity="0.55"/>
  <line x1="3" y1="45" x2="8" y2="45" stroke="#22d3ee" stroke-width="1.4" stroke-linecap="round" opacity="0.55"/>
  <line x1="45" y1="40" x2="45" y2="45" stroke="#22d3ee" stroke-width="1.4" stroke-linecap="round" opacity="0.55"/>
  <line x1="45" y1="45" x2="40" y2="45" stroke="#22d3ee" stroke-width="1.4" stroke-linecap="round" opacity="0.55"/>

  <line x1="24" y1="11" x2="24" y2="6" stroke="#22d3ee" stroke-width="1.6" opacity="0.85"/>
  <rect x="22.4" y="2.4" width="3.2" height="3.2" rx="0.6" fill="#22d3ee"/>
  <line x1="35.26" y1="17.5" x2="39.5" y2="15" stroke="#8b5cf6" stroke-width="1.6" opacity="0.85"/>
  <rect x="39.72" y="12.4" width="3.2" height="3.2" rx="0.6" fill="#8b5cf6"/>
  <line x1="35.26" y1="30.5" x2="39.5" y2="33" stroke="#22d3ee" stroke-width="1.6" opacity="0.85"/>
  <rect x="39.72" y="32.4" width="3.2" height="3.2" rx="0.6" fill="#22d3ee"/>
  <line x1="24" y1="37" x2="24" y2="42" stroke="#8b5cf6" stroke-width="1.6" opacity="0.85"/>
  <rect x="22.4" y="42.4" width="3.2" height="3.2" rx="0.6" fill="#8b5cf6"/>
  <line x1="12.74" y1="30.5" x2="8.5" y2="33" stroke="#22d3ee" stroke-width="1.6" opacity="0.85"/>
  <rect x="5.08" y="32.4" width="3.2" height="3.2" rx="0.6" fill="#22d3ee"/>
  <line x1="12.74" y1="17.5" x2="8.5" y2="15" stroke="#8b5cf6" stroke-width="1.6" opacity="0.85"/>
  <rect x="5.08" y="12.4" width="3.2" height="3.2" rx="0.6" fill="#8b5cf6"/>

  <polygon points="24,11 35.26,17.5 35.26,30.5 24,37 12.74,30.5 12.74,17.5" stroke="url(#g)" stroke-width="2.2" stroke-linejoin="round" fill="#0a0e1a"/>
  <circle cx="16.5" cy="20" r="1.1" fill="#d4b483"/>

  <path d="M17.5 24.5 L21.5 28.5" stroke="url(#g)" stroke-width="2.6" stroke-linecap="round" fill="none"/>
  <path d="M21.5 28.5 L31 18" stroke="url(#g)" stroke-width="2.6" stroke-linecap="round" fill="none"/>
  <rect x="20.1" y="27.1" width="2.8" height="2.8" rx="0.6" fill="#0a0e1a" stroke="url(#g)" stroke-width="1.2"/>
</svg>
